<svg width="14" height="14" viewBox="0 0 14 14" fill="none" xmlns="http://www.w3.org/2000/svg">
<path d="M9.23494 6.79845C10.0959 6.11595 10.5992 5.0757 10.5992 3.97695C10.5992 2.0022 8.97394 0.376953 6.99844 0.376953C5.02369 0.376953 3.39844 2.0022 3.39844 3.97695C3.39844 5.0757 3.90169 6.11595 4.76269 6.79845C2.15419 7.73895 0.403687 10.2275 0.398438 13.0002C0.398438 13.3295 0.669187 13.6002 0.998437 13.6002C1.32769 13.6002 1.59844 13.3295 1.59844 13.0002C1.59844 10.0377 4.03594 7.6002 6.99844 7.6002C9.96094 7.6002 12.3984 10.0377 12.3984 13.0002C12.3984 13.3295 12.6692 13.6002 12.9984 13.6002C13.3277 13.6002 13.5984 13.3295 13.5984 13.0002C13.5939 10.2275 11.8434 7.7397 9.23494 6.79845ZM4.59844 4.0002C4.59844 2.68395 5.68219 1.6002 6.99844 1.6002C8.31469 1.6002 9.39844 2.68395 9.39844 4.0002C9.39844 5.31645 8.31469 6.4002 6.99844 6.4002C5.68219 6.4002 4.59844 5.31645 4.59844 4.0002Z" fill="#767676"/>
</svg>
