<svg width="12" height="15" viewBox="0 0 12 15" fill="none" xmlns="http://www.w3.org/2000/svg">
<path d="M9.75098 5.49992H9.60083V3.99992C9.59993 3.28965 9.38918 2.59549 8.99506 2.00461C8.60095 1.41372 8.04102 0.952462 7.38562 0.678751L7.37866 0.673988C7.26437 0.632846 7.14807 0.597523 7.03021 0.568156C6.92474 0.536386 6.82385 0.494363 6.71454 0.472208C5.89626 0.30621 5.04571 0.43002 4.30871 0.822415C3.57171 1.21481 2.99415 1.85135 2.67505 2.62292C2.61503 2.76982 2.61565 2.93452 2.67677 3.08097C2.7379 3.22742 2.85456 3.34368 3.00121 3.40432C3.14786 3.46496 3.31256 3.46503 3.45926 3.40452C3.60597 3.34401 3.72272 3.22785 3.78398 3.08145C3.96621 2.64326 4.27388 2.26869 4.66832 2.00481C5.06277 1.74093 5.5264 1.5995 6.00098 1.5983V1.5998C6.16068 1.59997 6.31997 1.61607 6.47648 1.64786C6.57074 1.67059 6.66355 1.69893 6.75443 1.73273C7.23216 1.88993 7.6483 2.19351 7.94385 2.60044C8.23941 3.00736 8.39939 3.49699 8.40113 3.99992V5.49992H2.25098C1.85351 5.50107 1.47265 5.65948 1.19159 5.94053C0.910536 6.22159 0.75213 6.60245 0.750977 6.99992V12.9999C0.75213 13.3974 0.910536 13.7782 1.19159 14.0593C1.47265 14.3404 1.85351 14.4988 2.25098 14.4999H9.75098C10.1484 14.4988 10.5293 14.3404 10.8104 14.0593C11.0914 13.7782 11.2498 13.3974 11.251 12.9999V6.99992C11.2498 6.60245 11.0914 6.22159 10.8104 5.94053C10.5293 5.65948 10.1484 5.50107 9.75098 5.49992ZM10.0509 12.9999C10.0499 13.0791 10.0179 13.1548 9.96192 13.2109C9.90589 13.2669 9.83021 13.2989 9.75098 13.2999H2.25098C2.17175 13.2989 2.09606 13.2669 2.04004 13.2109C1.98402 13.1548 1.95209 13.0791 1.95105 12.9999V6.99992C1.95208 6.92069 1.98401 6.84499 2.04004 6.78895C2.09606 6.73292 2.17175 6.70097 2.25098 6.69992H9.75098C9.83021 6.70097 9.9059 6.73292 9.96192 6.78895C10.0179 6.84499 10.0499 6.92069 10.0509 6.99992V12.9999Z" fill="#767676"/>
</svg>
